Coordinates
version=1
nRows=12
nColumns=24
inDegrees=yes

Units are S.I. units (second, meters, Newtons, ...)
Angles are in degrees.

endheader
time	pelvis_tilt	pelvis_list	pelvis_rotation	pelvis_tx	pelvis_ty	pelvis_tz	hip_flexion_r	hip_adduction_r	hip_rotation_r	knee_angle_r	ankle_angle_r	subtalar_angle_r	mtp_angle_r	hip_flexion_l	hip_adduction_l	hip_rotation_l	knee_angle_l	ankle_angle_l	subtalar_angle_l	mtp_angle_l	lumbar_extension	lumbar_bending	lumbar_rotation
      3.66000000	    -14.11898423	     11.01182345	     -8.54875825	     -0.76024386	     -0.01900995	      0.02065788	     20.21154841	    -17.79868546	     -4.04712478	    -57.29591218	    -23.73047792	      9.34155943	     35.93823338	     27.51701825	      9.56465543	    -18.58455307	    -11.98801653	     -9.95153353	      4.10957608	     10.40750123	     14.00834529	    -12.27451966	      8.38214427
      3.66500000	    -13.99908161	     10.94154599	     -8.38400085	     -0.75435476	     -0.01804279	      0.01974665	     20.78563484	    -17.75848240	     -3.94969070	    -58.11537663	    -23.14884683	      9.53328251	     36.25831961	     26.82602627	      9.76621404	    -18.44025572	    -11.64293303	     -9.66955969	      4.47036053	     10.38067715	     13.85299219	    -12.25793150	      8.01159561
      3.67000000	    -13.88685488	     10.82472294	     -8.22040659	     -0.74843231	     -0.01707841	      0.01881934	     21.33598387	    -17.66098070	     -3.87151785	    -58.85065105	    -22.60400370	      9.82478752	     36.64131185	     26.13047990	      9.92288691	    -18.23531419	    -11.29188971	     -9.40808567	      4.71685296	     10.40739507	     13.71129580	    -12.18337845	      7.66711181
      3.67500000	    -13.63521039	     10.68446080	     -8.08769450	     -0.74257266	     -0.01589389	      0.01791042	     21.71287848	    -17.54330339	     -3.77378720	    -59.43957221	    -22.25470580	     10.11709105	     37.66558704	     25.26839656	     10.07718277	    -17.97770549	    -10.91477742	     -9.16320591	      4.93029985	     10.26219317	     13.40572772	    -12.10190181	      7.29083846
      3.68000000	    -13.59052334	     10.52290865	     -7.87527963	     -0.73672076	     -0.01497977	      0.01692680	     22.29629755	    -17.38085404	     -3.71289328	    -60.03320585	    -21.83776919	     10.64926463	     38.17495131	     24.64602468	     10.18391283	    -17.69773190	    -10.57549450	     -8.96980647	      5.13219446	     10.33011908	     13.31849717	    -11.97968287	      6.87151593
      3.68500000	    -13.40060254	     10.33686262	     -7.69844312	     -0.73081486	     -0.01387812	      0.01593809	     22.67769583	    -17.21159134	     -3.67932145	    -60.45636632	    -21.57581598	     11.00980516	     39.60804152	     23.82945332	     10.29922947	    -17.28945894	    -10.18169050	     -8.77993501	      5.16464996	     10.20851286	     13.08561761	    -11.83846431	      6.49586843
      3.69000000	    -13.29325484	     10.17485355	     -7.48666443	     -0.72503388	     -0.01295707	      0.01493777	     23.16725918	    -17.05567642	     -3.64067169	    -60.90314595	    -21.19649162	     11.58321952	     40.48749291	     23.14209857	     10.41359042	    -16.96597095	     -9.84395950	     -8.59462926	      5.27764101	     10.17711643	     12.92812163	    -11.72245324	      6.07999722
      3.69500000	    -13.23546015	      9.95633135	     -7.29274287	     -0.71924954	     -0.01204007	      0.01397390	     23.69075092	    -16.79759318	     -3.56230954	    -61.28751178	    -20.83058121	     12.27675098	     41.03752098	     22.49382095	     10.44548287	    -16.64522178	     -9.49520736	     -8.41310488	      5.41061551	     10.18350621	     12.82813492	    -11.52972391	      5.67692563
      3.70000000	    -13.05451181	      9.77345810	     -7.07522342	     -0.71341100	     -0.01107170	      0.01293544	     24.04448801	    -16.63560157	     -3.57615991	    -61.57777660	    -20.43851770	     12.83516055	     42.09912980	     21.69515582	     10.55992044	    -16.21202027	     -9.11491119	     -8.24688994	      5.38144099	     10.01175344	     12.60587163	    -11.39482481	      5.26624265
      3.70500000	    -13.01774243	      9.53727954	     -6.89441564	     -0.70773981	     -0.01024383	      0.01200462	     24.58476096	    -16.33498869	     -3.49451176	    -61.86218162	    -20.07783075	     13.49991834	     42.61921073	     21.08089930	     10.54681917	    -15.87927024	     -8.78299695	     -8.05429382	      5.51180881	     10.01386768	     12.52516936	    -11.17577133	      4.90899504
      3.71000000	    -12.84302184	      9.34477521	     -6.66401284	     -0.70197109	     -0.00935365	      0.01094967	     24.92459342	    -16.15738656	     -3.53448706	    -62.05369075	    -19.65852297	     14.00039301	     43.57965729	     20.29343932	     10.63854625	    -15.43633409	     -8.41001144	     -7.88585308	      5.48530143	      9.82954917	     12.30503267	    -11.02841329	      4.50116826
      3.71500000	    -12.82517535	      9.10892814	     -6.48907736	     -0.69631569	     -0.00865067	      0.01003992	     25.46945152	    -15.84842789	     -3.48215812	    -62.25285522	    -19.22748354	     14.54610373	     43.93280265	     19.70209619	     10.60659292	    -15.13150708	     -8.07791078	     -7.68015771	      5.61459300	      9.85766495	     12.26118957	    -10.80120259	      4.20392265
